<?xml version="1.0" standalone="no"?>
<!DOCTYPE svg PUBLIC "-//W3C//DTD SVG 1.1//EN"
  "http://www.w3.org/Graphics/SVG/1.1/DTD/svg11.dtd">
<svg width="172mm" height="204.99999999999994mm" viewBox="-250 -248.99999999999994 172 204.99999999999994" xmlns="http://www.w3.org/2000/svg" version="1.1">
	<title>svgOutput</title>
	<desc>made with tinkercad</desc>
<path d="M -144 -201.99999999999994 L -144 -239.99999999999994 L -142.0030059814453 -239.99999999999994 L -137.9980010986328 -239.99999999999994 L -118.00299835205078 -239.99999999999994 L -113.99800109863281 -239.99999999999994 L -102 -239.99999999999994 L -102 -247.99999999999994 L -87.00299835205078 -247.99999999999994 L -83.99800109863281 -247.99999999999994 L -79 -247.99999999999994 L -79 -199.49800109863276 L -79 -194.99999999999994 L -79 -193.99999999999994 L -102 -193.99999999999994 L -102 -194.99999999999994 L -102 -201.99999999999994 L -142.0030059814453 -201.99999999999994 L -144 -201.99999999999994 M -149 -83.99999999999999 L -181.0030059814453 -83.99999999999999 L -200.5030059814453 -83.99999999999999 L -220.5030059814453 -83.99999999999999 L -221.0030059814453 -83.99999999999999 L -225.0030059814453 -83.99999999999999 L -227.4980010986328 -83.99999999999999 L -230.5030059814453 -83.99999999999999 L -249 -83.99999999999999 L -249 -194.99999999999994 L -249 -243.99999999999994 L -225.0030059814453 -243.99999999999994 L -224.98199462890625 -243.99999999999994 L -221.9980010986328 -243.99999999999994 L -221.9770050048828 -243.99999999999994 L -220.5030059814453 -243.99999999999994 L -200.5030059814453 -243.99999999999994 L -181.0030059814453 -243.99999999999994 L -177.9980010986328 -243.99999999999994 L -176.01300048828125 -243.99999999999994 L -175.99200439453125 -243.99999999999994 L -172.98699951171875 -243.99999999999994 L -149 -243.99999999999994 L -149 -226.49499511718744 L -149 -206.24800109863276 L -149 -194.99999999999994 L -149 -88.9980010986328 L -149 -83.99999999999999 M -94 -151.99999999999997 L -94 -98.99800109863278 L -94 -87.99999999999999 L -102.00299835205078 -87.99999999999999 L -124 -87.99999999999999 L -124 -78.4980010986328 L -124 -53.4980010986328 L -124 -44.99999999999999 L -129.0030059814453 -44.99999999999999 L -129.02999877929688 -44.99999999999999 L -144 -44.99999999999999 L -144 -194.99999999999994 L -129.02999877929688 -194.99999999999994 L -126.0250015258789 -194.99999999999994 L -124 -194.99999999999994 L -124 -184.3480072021484 L -124 -158.49800109863278 L -124 -151.99999999999997 L -102.00299835205078 -151.99999999999997 L -102 -151.99999999999997 L -98.99800109863281 -151.99999999999997 L -94 -151.99999999999997 M -84.07099914550781 -200.53599548339838 L -84.04457092285156 -200.7039947509765 L -83.99800109863281 -200.99999999999994 L -84.07099914550781 -201.4640045166015 L -84.28399658203125 -201.8829956054687 L -84.61699676513672 -202.2160034179687 L -85.03600311279297 -202.42900085449213 L -85.5 -202.50300598144526 L -85.96399688720703 -202.42900085449213 L -86.38300323486328 -202.2160034179687 L -86.71600341796875 -201.8829956054687 L -86.92900085449219 -201.4640045166015 L -87.00299835205078 -200.99999999999994 L -86.95579528808594 -200.7039947509765 L -86.92900085449219 -200.53599548339838 L -86.71600341796875 -200.1170043945312 L -86.38300323486328 -199.7839965820312 L -85.96399688720703 -199.57099914550776 L -85.5 -199.49800109863276 L -85.03600311279297 -199.57099914550776 L -84.61699676513672 -199.7839965820312 L -84.28399658203125 -200.1170043945312 L -84.07099914550781 -200.53599548339838 M -84.07099914550781 -220.53599548339838 L -83.99800109863281 -220.99999999999994 L -84.02694702148438 -221.18400573730463 L -84.07099914550781 -221.4640045166015 L -84.28399658203125 -221.8829956054687 L -84.61699676513672 -222.2160034179687 L -85.03600311279297 -222.42900085449213 L -85.5 -222.50300598144526 L -85.96399688720703 -222.42900085449213 L -86.38300323486328 -222.2160034179687 L -86.71600341796875 -221.8829956054687 L -86.92900085449219 -221.4640045166015 L -86.9736557006836 -221.18400573730463 L -87.00299835205078 -220.99999999999994 L -86.92900085449219 -220.53599548339838 L -86.71600341796875 -220.1170043945312 L -86.38300323486328 -219.7839965820312 L -85.96399688720703 -219.57099914550776 L -85.5 -219.49800109863276 L -85.03600311279297 -219.57099914550776 L -84.61699676513672 -219.7839965820312 L -84.28399658203125 -220.1170043945312 L -84.07099914550781 -220.53599548339838 M -86.38300323486328 -239.2839965820312 L -86.01599884033203 -239.097427368164 L -85.96399688720703 -239.07099914550776 L -85.5 -238.99800109863276 L -85.03600311279297 -239.07099914550776 L -84.61699676513672 -239.2839965820312 L -84.28399658203125 -239.6170043945312 L -84.07099914550781 -240.03599548339838 L -83.99800109863281 -240.49999999999994 L -84.07099914550781 -240.9640045166015 L -84.28399658203125 -241.3829956054687 L -84.56500244140625 -241.6640014648437 L -84.61699676513672 -241.7160034179687 L -85.03600311279297 -241.92900085449213 L -85.5 -242.00300598144526 L -85.96399688720703 -241.92900085449213 L -86.38300323486328 -241.7160034179687 L -86.43499755859375 -241.6640014648437 L -86.71600341796875 -241.3829956054687 L -86.92900085449219 -240.9640045166015 L -87.00299835205078 -240.49999999999994 L -86.92900085449219 -240.03599548339838 L -86.71600341796875 -239.6170043945312 L -86.38300323486328 -239.2839965820312 M -174.95399475097656 -226.56799316406244 L -174.49000549316406 -226.49499511718744 L -174.0800018310547 -226.5595092773437 L -174.0260009765625 -226.56799316406244 L -173.60699462890625 -226.781997680664 L -173.2740020751953 -227.11399841308588 L -173.06100463867188 -227.53300476074213 L -172.98699951171875 -227.99699401855463 L -173.06100463867188 -228.46200561523432 L -173.2740020751953 -228.8809967041015 L -173.60699462890625 -229.21299743652338 L -173.92764282226562 -229.37600708007807 L -174.0260009765625 -229.42599487304682 L -174.49000549316406 -229.49999999999994 L -174.95399475097656 -229.42599487304682 L -175.05235290527344 -229.37600708007807 L -175.3730010986328 -229.21299743652338 L -175.7050018310547 -228.8809967041015 L -175.91900634765625 -228.46200561523432 L -175.99200439453125 -227.99699401855463 L -175.91900634765625 -227.53300476074213 L -175.7050018310547 -227.11399841308588 L -175.3730010986328 -226.781997680664 L -174.95399475097656 -226.56799316406244 M -174.9739990234375 -206.32099914550776 L -174.50999450683594 -206.24800109863276 L -174.0800018310547 -206.31564331054682 L -174.04600524902344 -206.32099914550776 L -173.6269989013672 -206.5339965820312 L -173.2949981689453 -206.8670043945312 L -173.08099365234375 -207.28599548339838 L -173.00799560546875 -207.74999999999994 L -173.08099365234375 -208.2140045166015 L -173.2949981689453 -208.6329956054687 L -173.5572052001953 -208.89599609374994 L -173.6269989013672 -208.9660034179687 L -174.04600524902344 -209.17900085449213 L -174.50999450683594 -209.25300598144526 L -174.9739990234375 -209.17900085449213 L -175.39300537109375 -208.9660034179687 L -175.46299743652344 -208.89599609374994 L -175.7259979248047 -208.6329956054687 L -175.93899536132812 -208.2140045166015 L -175.99200439453125 -207.88166809082026 L -176.01300048828125 -207.74999999999994 L -175.99200439453125 -207.61833190917963 L -175.93899536132812 -207.28599548339838 L -175.7259979248047 -206.8670043945312 L -175.39300537109375 -206.5339965820312 L -174.9739990234375 -206.32099914550776 M -223.96400451660156 -206.32099914550776 L -223.5 -206.24800109863276 L -223.23199462890625 -206.29016113281244 L -223.03599548339844 -206.32099914550776 L -222.61700439453125 -206.5339965820312 L -222.28399658203125 -206.8670043945312 L -222.0709991455078 -207.28599548339838 L -221.9980010986328 -207.74999999999994 L -222.0709991455078 -208.2140045166015 L -222.28399658203125 -208.6329956054687 L -222.5469970703125 -208.89599609374994 L -222.61700439453125 -208.9660034179687 L -223.03599548339844 -209.17900085449213 L -223.5 -209.25300598144526 L -223.96400451660156 -209.17900085449213 L -224.38299560546875 -208.9660034179687 L -224.4530029296875 -208.89599609374994 L -224.71600341796875 -208.6329956054687 L -224.9290008544922 -208.2140045166015 L -225.0030059814453 -207.74999999999994 L -224.9290008544922 -207.28599548339838 L -224.71600341796875 -206.8670043945312 L -224.38299560546875 -206.5339965820312 L -223.96400451660156 -206.32099914550776 M -223.94400024414062 -226.56799316406244 L -223.47999572753906 -226.49499511718744 L -223.23199462890625 -226.53401184082026 L -223.01600646972656 -226.56799316406244 L -222.5970001220703 -226.781997680664 L -222.26400756835938 -227.11399841308588 L -222.05099487304688 -227.53300476074213 L -221.9980010986328 -227.86532592773432 L -221.9770050048828 -227.99699401855463 L -221.9980010986328 -228.12895202636713 L -222.05099487304688 -228.46200561523432 L -222.26400756835938 -228.8809967041015 L -222.5970001220703 -229.21299743652338 L -222.9176483154297 -229.37600708007807 L -223.01600646972656 -229.42599487304682 L -223.47999572753906 -229.49999999999994 L -223.94400024414062 -229.42599487304682 L -224.0423583984375 -229.37600708007807 L -224.36300659179688 -229.21299743652338 L -224.69500732421875 -228.8809967041015 L -224.90899658203125 -228.46200561523432 L -224.98199462890625 -227.99699401855463 L -224.90899658203125 -227.53300476074213 L -224.69500732421875 -227.11399841308588 L -224.36300659179688 -226.781997680664 L -223.94400024414062 -226.56799316406244 M -140.61900329589844 -234.09599304199213 L -140 -233.99800109863276 L -139.38099670410156 -234.09599304199213 L -139.26400756835938 -234.15554809570307 L -138.822998046875 -234.38000488281244 L -138.3800048828125 -234.82299804687494 L -138.0959930419922 -235.3809967041015 L -137.9980010986328 -235.99999999999994 L -138.0959930419922 -236.61900329589838 L -138.3800048828125 -237.17700195312494 L -138.77099609375 -237.56799316406244 L -138.822998046875 -237.61999511718744 L -139.38099670410156 -237.90499877929682 L -140 -238.00300598144526 L -140.61900329589844 -237.90499877929682 L -141.177001953125 -237.61999511718744 L -141.22900390625 -237.56799316406244 L -141.6199951171875 -237.17700195312494 L -141.90499877929688 -236.61900329589838 L -142.0030059814453 -235.99999999999994 L -141.90499877929688 -235.3809967041015 L -141.6199951171875 -234.82299804687494 L -141.177001953125 -234.38000488281244 L -140.61900329589844 -234.09599304199213 M -114.822998046875 -234.38000488281244 L -114.68800354003906 -234.51499938964838 L -114.37999725341797 -234.82299804687494 L -114.09600067138672 -235.3809967041015 L -113.99800109863281 -235.99999999999994 L -114.09600067138672 -236.61900329589838 L -114.37999725341797 -237.17700195312494 L -114.68800354003906 -237.4850006103515 L -114.77100372314453 -237.56799316406244 L -114.822998046875 -237.61999511718744 L -115.38099670410156 -237.90499877929682 L -116 -238.00300598144526 L -116.61900329589844 -237.90499877929682 L -117.177001953125 -237.61999511718744 L -117.22899627685547 -237.56799316406244 L -117.62000274658203 -237.17700195312494 L -117.90399932861328 -236.61900329589838 L -118.00299835205078 -235.99999999999994 L -117.90399932861328 -235.3809967041015 L -117.62000274658203 -234.82299804687494 L -117.177001953125 -234.38000488281244 L -116.61900329589844 -234.09599304199213 L -116 -233.99800109863276 L -115.38099670410156 -234.09599304199213 L -114.822998046875 -234.38000488281244 M -138.822998046875 -204.38000488281244 L -138.4029998779297 -204.80000305175776 L -138.3800048828125 -204.82299804687494 L -138.0959930419922 -205.3809967041015 L -137.9980010986328 -205.99999999999994 L -138.0959930419922 -206.61900329589838 L -138.3800048828125 -207.17700195312494 L -138.822998046875 -207.61999511718744 L -139.26400756835938 -207.84524536132807 L -139.38099670410156 -207.90499877929682 L -140 -208.00300598144526 L -140.61900329589844 -207.90499877929682 L -141.177001953125 -207.61999511718744 L -141.6199951171875 -207.17700195312494 L -141.90499877929688 -206.61900329589838 L -142.0030059814453 -205.99999999999994 L -141.90499877929688 -205.3809967041015 L -141.6199951171875 -204.82299804687494 L -141.5970001220703 -204.80000305175776 L -141.177001953125 -204.38000488281244 L -140.61900329589844 -204.09599304199213 L -140 -203.99800109863276 L -139.38099670410156 -204.09599304199213 L -138.822998046875 -204.38000488281244 M -114.822998046875 -204.38000488281244 L -114.40299987792969 -204.80000305175776 L -114.37999725341797 -204.82299804687494 L -114.09600067138672 -205.3809967041015 L -113.99800109863281 -205.99999999999994 L -114.09600067138672 -206.61900329589838 L -114.37999725341797 -207.17700195312494 L -114.68800354003906 -207.4850006103515 L -114.822998046875 -207.61999511718744 L -115.38099670410156 -207.90499877929682 L -116 -208.00300598144526 L -116.61900329589844 -207.90499877929682 L -117.177001953125 -207.61999511718744 L -117.62000274658203 -207.17700195312494 L -117.90399932861328 -206.61900329589838 L -118.00299835205078 -205.99999999999994 L -117.90399932861328 -205.3809967041015 L -117.62000274658203 -204.82299804687494 L -117.59700012207031 -204.80000305175776 L -117.177001953125 -204.38000488281244 L -116.61900329589844 -204.09599304199213 L -116 -203.99800109863276 L -115.38099670410156 -204.09599304199213 L -114.822998046875 -204.38000488281244 M -179.96400451660156 -89.0709991455078 L -179.5 -88.9980010986328 L -179.03599548339844 -89.0709991455078 L -178.61700439453125 -89.28399658203124 L -178.28399658203125 -89.6169967651367 L -178.0709991455078 -90.03600311279295 L -178.0590362548828 -90.11199951171874 L -177.9980010986328 -90.49999999999999 L -178.0709991455078 -90.96399688720702 L -178.28399658203125 -91.38300323486327 L -178.61700439453125 -91.71600341796874 L -179.03599548339844 -91.92900085449217 L -179.5 -92.00299835205077 L -179.96400451660156 -91.92900085449217 L -180.38299560546875 -91.71600341796874 L -180.71600341796875 -91.38300323486327 L -180.9290008544922 -90.96399688720702 L -181.0030059814453 -90.49999999999999 L -180.9411163330078 -90.11199951171874 L -180.9290008544922 -90.03600311279295 L -180.71600341796875 -89.6169967651367 L -180.38299560546875 -89.28399658203124 L -179.96400451660156 -89.0709991455078 M -199.46400451660156 -89.0709991455078 L -199 -88.9980010986328 L -198.53599548339844 -89.0709991455078 L -198.11700439453125 -89.28399658203124 L -197.78399658203125 -89.6169967651367 L -197.5709991455078 -90.03600311279295 L -197.5590362548828 -90.11199951171874 L -197.4980010986328 -90.49999999999999 L -197.5709991455078 -90.96399688720702 L -197.78399658203125 -91.38300323486327 L -198.11700439453125 -91.71600341796874 L -198.53599548339844 -91.92900085449217 L -199 -92.00299835205077 L -199.46400451660156 -91.92900085449217 L -199.88299560546875 -91.71600341796874 L -200.21600341796875 -91.38300323486327 L -200.4290008544922 -90.96399688720702 L -200.5030059814453 -90.49999999999999 L -200.4411163330078 -90.11199951171874 L -200.4290008544922 -90.03600311279295 L -200.21600341796875 -89.6169967651367 L -199.88299560546875 -89.28399658203124 L -199.46400451660156 -89.0709991455078 M -200.5030059814453 -176.9852142333984 L -199 -176.74800109863278 L -197.4980010986328 -176.98506164550778 L -197.45399475097656 -176.99200439453122 L -196.05999755859375 -177.70300292968747 L -194.9530029296875 -178.80999755859372 L -194.24200439453125 -180.20399475097653 L -194.2388458251953 -180.22399902343747 L -193.9980010986328 -181.74999999999997 L -194.24200439453125 -183.2960052490234 L -194.9530029296875 -184.69000244140622 L -196.05999755859375 -185.79699707031247 L -197.45399475097656 -186.50799560546872 L -197.4980010986328 -186.51496887207028 L -199 -186.75300598144528 L -200.5030059814453 -186.51481628417966 L -200.54600524902344 -186.50799560546872 L -201.94000244140625 -185.79699707031247 L -203.0469970703125 -184.69000244140622 L -203.75799560546875 -183.2960052490234 L -204.0030059814453 -181.74999999999997 L -203.76116943359375 -180.22399902343747 L -203.75799560546875 -180.20399475097653 L -203.0469970703125 -178.80999755859372 L -201.94000244140625 -177.70300292968747 L -200.54600524902344 -176.99200439453122 L -200.5030059814453 -176.9852142333984 M -184.32000732421875 -119.04866027832028 L -184 -118.99800109863278 L -183.38099670410156 -119.09600067138669 L -182.822998046875 -119.37999725341794 L -182.3800048828125 -119.82299804687497 L -182.0959930419922 -120.38099670410153 L -181.9980010986328 -120.99999999999997 L -182.0959930419922 -121.61900329589841 L -182.3800048828125 -122.17700195312497 L -182.822998046875 -122.620002746582 L -183.33384704589844 -122.87999725341794 L -183.38099670410156 -122.90399932861325 L -184 -123.00299835205075 L -184.61900329589844 -122.90399932861325 L -184.66615295410156 -122.87999725341794 L -185.177001953125 -122.620002746582 L -185.6199951171875 -122.17700195312497 L -185.90499877929688 -121.61900329589841 L -186.0030059814453 -120.99999999999997 L -185.90499877929688 -120.38099670410153 L -185.6199951171875 -119.82299804687497 L -185.177001953125 -119.37999725341794 L -184.61900329589844 -119.09600067138669 L -184.32000732421875 -119.04866027832028 M -183.38099670410156 -143.09599304199216 L -182.86228942871094 -143.36000061035153 L -182.822998046875 -143.38000488281247 L -182.3800048828125 -143.82299804687497 L -182.0959930419922 -144.38099670410153 L -181.9980010986328 -144.99999999999997 L -182.0959930419922 -145.6190032958984 L -182.3800048828125 -146.17700195312497 L -182.822998046875 -146.61999511718747 L -183.38099670410156 -146.90499877929685 L -184 -147.00300598144528 L -184.32000732421875 -146.95233154296872 L -184.61900329589844 -146.90499877929685 L -185.177001953125 -146.61999511718747 L -185.6199951171875 -146.17700195312497 L -185.90499877929688 -145.6190032958984 L -186.0030059814453 -144.99999999999997 L -185.90499877929688 -144.38099670410153 L -185.6199951171875 -143.82299804687497 L -185.177001953125 -143.38000488281247 L -185.13771057128906 -143.36000061035153 L -184.61900329589844 -143.09599304199216 L -184 -142.99800109863278 L -183.38099670410156 -143.09599304199216 M -219.46400451660156 -89.0709991455078 L -219 -88.9980010986328 L -218.53599548339844 -89.0709991455078 L -218.11700439453125 -89.28399658203124 L -217.78399658203125 -89.6169967651367 L -217.5709991455078 -90.03600311279295 L -217.5590362548828 -90.11199951171874 L -217.4980010986328 -90.49999999999999 L -217.5709991455078 -90.96399688720702 L -217.78399658203125 -91.38300323486327 L -218.11700439453125 -91.71600341796874 L -218.53599548339844 -91.92900085449217 L -219 -92.00299835205077 L -219.46400451660156 -91.92900085449217 L -219.88299560546875 -91.71600341796874 L -220.21600341796875 -91.38300323486327 L -220.4290008544922 -90.96399688720702 L -220.5030059814453 -90.49999999999999 L -220.4411163330078 -90.11199951171874 L -220.4290008544922 -90.03600311279295 L -220.21600341796875 -89.6169967651367 L -219.88299560546875 -89.28399658203124 L -219.46400451660156 -89.0709991455078 M -214.61900329589844 -119.09600067138669 L -214 -118.99800109863278 L -213.4980010986328 -119.07747650146482 L -213.38099670410156 -119.09600067138669 L -212.99200439453125 -119.29398345947263 L -212.822998046875 -119.37999725341794 L -212.3800048828125 -119.82299804687497 L -212.0959930419922 -120.38099670410153 L -211.9980010986328 -120.99999999999997 L -212.0959930419922 -121.61900329589841 L -212.3800048828125 -122.17700195312497 L -212.822998046875 -122.620002746582 L -212.99200439453125 -122.70601654052732 L -213.33384704589844 -122.87999725341794 L -213.38099670410156 -122.90399932861325 L -213.4980010986328 -122.92271423339841 L -214 -123.00299835205075 L -214.61900329589844 -122.90399932861325 L -214.66615295410156 -122.87999725341794 L -215.177001953125 -122.620002746582 L -215.6199951171875 -122.17700195312497 L -215.90499877929688 -121.61900329589841 L -216.0030059814453 -120.99999999999997 L -215.90499877929688 -120.38099670410153 L -215.6199951171875 -119.82299804687497 L -215.177001953125 -119.37999725341794 L -214.61900329589844 -119.09600067138669 M -214.61900329589844 -143.09599304199216 L -214 -142.99800109863278 L -213.4980010986328 -143.07748413085935 L -213.38099670410156 -143.09599304199216 L -212.86228942871094 -143.36000061035153 L -212.822998046875 -143.38000488281247 L -212.3800048828125 -143.82299804687497 L -212.0959930419922 -144.38099670410153 L -211.9980010986328 -144.99999999999997 L -212.0959930419922 -145.6190032958984 L -212.3800048828125 -146.17700195312497 L -212.822998046875 -146.61999511718747 L -212.99200439453125 -146.70631408691403 L -213.38099670410156 -146.90499877929685 L -213.4980010986328 -146.92352294921872 L -214 -147.00300598144528 L -214.61900329589844 -146.90499877929685 L -215.177001953125 -146.61999511718747 L -215.6199951171875 -146.17700195312497 L -215.90499877929688 -145.6190032958984 L -216.0030059814453 -144.99999999999997 L -215.90499877929688 -144.38099670410153 L -215.6199951171875 -143.82299804687497 L -215.177001953125 -143.38000488281247 L -215.13771057128906 -143.36000061035153 L -214.61900329589844 -143.09599304199216 M -99.07099914550781 -100.03600311279294 L -99.02128601074219 -100.35199737548825 L -98.99800109863281 -100.49999999999997 L -99.07099914550781 -100.963996887207 L -99.28399658203125 -101.38300323486325 L -99.61699676513672 -101.71600341796872 L -100.03600311279297 -101.92900085449216 L -100.5 -102.00299835205075 L -100.96399688720703 -101.92900085449216 L -101.38300323486328 -101.71600341796872 L -101.71600341796875 -101.38300323486325 L -101.92900085449219 -100.963996887207 L -102.00299835205078 -100.49999999999997 L -101.9793930053711 -100.35199737548825 L -101.92900085449219 -100.03600311279294 L -101.71600341796875 -99.61699676513669 L -101.38300323486328 -99.28399658203122 L -100.96399688720703 -99.07099914550778 L -100.5 -98.99800109863278 L -100.03600311279297 -99.07099914550778 L -99.61699676513672 -99.28399658203122 L -99.28399658203125 -99.61699676513669 L -99.07099914550781 -100.03600311279294 M -100.03600311279297 -118.57099914550778 L -99.61699676513672 -118.78399658203122 L -99.28399658203125 -119.11699676513669 L -99.07099914550781 -119.53600311279294 L -98.99800109863281 -119.99999999999997 L -99.07099914550781 -120.463996887207 L -99.28399658203125 -120.88300323486325 L -99.61699676513672 -121.21600341796872 L -100.03600311279297 -121.42900085449216 L -100.35199737548828 -121.47939300537107 L -100.5 -121.50299835205075 L -100.96399688720703 -121.42900085449216 L -101.38300323486328 -121.21600341796872 L -101.71600341796875 -120.88300323486325 L -101.92900085449219 -120.463996887207 L -102.00299835205078 -119.99999999999997 L -101.92900085449219 -119.53600311279294 L -101.71600341796875 -119.11699676513669 L -101.38300323486328 -118.78399658203122 L -100.96399688720703 -118.57099914550778 L -100.5 -118.49800109863278 L -100.03600311279297 -118.57099914550778 M -99.28399658203125 -139.11700439453122 L -99.20927429199219 -139.26400756835935 L -99.07099914550781 -139.5359954833984 L -98.99800109863281 -139.99999999999997 L -99.07099914550781 -140.46400451660153 L -99.28399658203125 -140.88299560546872 L -99.61699676513672 -141.21600341796872 L -100.03600311279297 -141.42900085449216 L -100.5 -141.50300598144528 L -100.96399688720703 -141.42900085449216 L -101.38300323486328 -141.21600341796872 L -101.71600341796875 -140.88299560546872 L -101.92900085449219 -140.46400451660153 L -102.00299835205078 -139.99999999999997 L -101.92900085449219 -139.5359954833984 L -101.79072570800781 -139.26400756835935 L -101.71600341796875 -139.11700439453122 L -101.38300323486328 -138.78399658203122 L -100.96399688720703 -138.57099914550778 L -100.5 -138.49800109863278 L -100.03600311279297 -138.57099914550778 L -99.61699676513672 -138.78399658203122 L -99.28399658203125 -139.11700439453122 M -128.95700073242188 -186.3139953613281 L -128.92941284179688 -186.36799621582028 L -128.7429962158203 -186.73300170898435 L -128.41099548339844 -187.06599426269528 L -127.99199676513672 -187.27900695800778 L -127.52799987792969 -187.35299682617185 L -127.06300354003906 -187.27900695800778 L -126.64399719238281 -187.06599426269528 L -126.31199645996094 -186.73300170898435 L -126.12644958496094 -186.36799621582028 L -126.0989990234375 -186.3139953613281 L -126.0250015258789 -185.8500061035156 L -126.0989990234375 -185.38600158691403 L -126.31199645996094 -184.96699523925778 L -126.64399719238281 -184.63400268554685 L -127.06300354003906 -184.4210052490234 L -127.52799987792969 -184.3480072021484 L -127.99199676513672 -184.4210052490234 L -128.41099548339844 -184.63400268554685 L -128.7429962158203 -184.96699523925778 L -128.95700073242188 -185.38600158691403 L -129.02999877929688 -185.8500061035156 L -128.95700073242188 -186.3139953613281 M -126.07099914550781 -159.5359954833984 L -126.28399658203125 -159.11700439453122 L -126.61699676513672 -158.78399658203122 L -127.03600311279297 -158.57099914550778 L -127.5 -158.49800109863278 L -127.96399688720703 -158.57099914550778 L -128.38299560546875 -158.78399658203122 L -128.71600341796875 -159.11700439453122 L -128.9290008544922 -159.5359954833984 L -128.96217346191406 -159.7440032958984 L -129.0030059814453 -159.99999999999997 L -128.9290008544922 -160.46400451660153 L -128.71600341796875 -160.88299560546872 L -128.38299560546875 -161.21600341796872 L -127.96399688720703 -161.42900085449216 L -127.5 -161.50300598144528 L -127.03600311279297 -161.42900085449216 L -126.61699676513672 -161.21600341796872 L -126.28399658203125 -160.88299560546872 L -126.07099914550781 -160.46400451660153 L -125.99800109863281 -159.99999999999997 L -126.03827667236328 -159.7440032958984 L -126.07099914550781 -159.5359954833984 M -126.28399658203125 -139.11700439453122 L -126.61699676513672 -138.78399658203122 L -127.03600311279297 -138.57099914550778 L -127.5 -138.49800109863278 L -127.96399688720703 -138.57099914550778 L -128.38299560546875 -138.78399658203122 L -128.71600341796875 -139.11700439453122 L -128.7907257080078 -139.26400756835935 L -128.9290008544922 -139.5359954833984 L -129.0030059814453 -139.99999999999997 L -128.9290008544922 -140.46400451660153 L -128.71600341796875 -140.88299560546872 L -128.38299560546875 -141.21600341796872 L -127.96399688720703 -141.42900085449216 L -127.5 -141.50300598144528 L -127.03600311279297 -141.42900085449216 L -126.61699676513672 -141.21600341796872 L -126.28399658203125 -140.88299560546872 L -126.07099914550781 -140.46400451660153 L -125.99800109863281 -139.99999999999997 L -126.07099914550781 -139.5359954833984 L -126.20927429199219 -139.26400756835935 L -126.28399658203125 -139.11700439453122 M -127.96399688720703 -118.57099914550778 L -128.38299560546875 -118.78399658203122 L -128.71600341796875 -119.11699676513669 L -128.9290008544922 -119.53600311279294 L -129.0030059814453 -119.99999999999997 L -128.9290008544922 -120.463996887207 L -128.71600341796875 -120.88300323486325 L -128.38299560546875 -121.21600341796872 L -127.96399688720703 -121.42900085449216 L -127.5 -121.50299835205075 L -127.03600311279297 -121.42900085449216 L -126.97599792480469 -121.39849853515622 L -126.61699676513672 -121.21600341796872 L -126.28399658203125 -120.88300323486325 L -126.07099914550781 -120.463996887207 L -125.99800109863281 -119.99999999999997 L -126.07099914550781 -119.53600311279294 L -126.28399658203125 -119.11699676513669 L -126.61699676513672 -118.78399658203122 L -127.03600311279297 -118.57099914550778 L -127.5 -118.49800109863278 L -127.96399688720703 -118.57099914550778 M -128.94686889648438 -100.35199737548825 L -129.0030059814453 -99.99999999999997 L -128.9290008544922 -99.53600311279294 L -128.71600341796875 -99.11699676513669 L -128.38299560546875 -98.78399658203122 L -127.96399688720703 -98.57099914550778 L -127.5 -98.49800109863278 L -127.03600311279297 -98.57099914550778 L -126.61699676513672 -98.78399658203122 L -126.28399658203125 -99.11699676513669 L -126.07099914550781 -99.53600311279294 L -125.99800109863281 -99.99999999999997 L -126.05338287353516 -100.35199737548825 L -126.07099914550781 -100.463996887207 L -126.28399658203125 -100.88300323486325 L -126.61699676513672 -101.21600341796872 L -127.03600311279297 -101.42900085449216 L -127.5 -101.50299835205075 L -127.96399688720703 -101.42900085449216 L -128.38299560546875 -101.21600341796872 L -128.71600341796875 -100.88300323486325 L -128.9290008544922 -100.463996887207 L -128.94686889648438 -100.35199737548825 M -126.07099914550781 -79.53600311279295 L -126.01813507080078 -79.8720016479492 L -125.99800109863281 -79.99999999999999 L -126.07099914550781 -80.46399688720702 L -126.28399658203125 -80.88300323486327 L -126.61699676513672 -81.21600341796874 L -127.03600311279297 -81.42900085449217 L -127.5 -81.50299835205077 L -127.96399688720703 -81.42900085449217 L -128.38299560546875 -81.21600341796874 L -128.71600341796875 -80.88300323486327 L -128.9290008544922 -80.46399688720702 L -129.0030059814453 -79.99999999999999 L -128.9825897216797 -79.8720016479492 L -128.9290008544922 -79.53600311279295 L -128.71600341796875 -79.1169967651367 L -128.38299560546875 -78.78399658203124 L -127.96399688720703 -78.5709991455078 L -127.5 -78.4980010986328 L -127.03600311279297 -78.5709991455078 L -126.61699676513672 -78.78399658203124 L -126.28399658203125 -79.1169967651367 L -126.07099914550781 -79.53600311279295 M -128.95579528808594 -55.29600143432616 L -129.0030059814453 -54.999999999999986 L -128.9290008544922 -54.53599929809569 L -128.71600341796875 -54.11700057983397 L -128.38299560546875 -53.7840003967285 L -127.96399688720703 -53.5709991455078 L -127.5 -53.4980010986328 L -127.03600311279297 -53.5709991455078 L -126.61699676513672 -53.7840003967285 L -126.28399658203125 -54.11700057983397 L -126.07099914550781 -54.53599929809569 L -125.99800109863281 -54.999999999999986 L -126.04457092285156 -55.29600143432616 L -126.07099914550781 -55.46400070190428 L -126.28399658203125 -55.882999420166 L -126.61699676513672 -56.21599960327147 L -127.03600311279297 -56.42900085449217 L -127.5 -56.50299835205077 L -127.96399688720703 -56.42900085449217 L -128.38299560546875 -56.21599960327147 L -128.71600341796875 -55.882999420166 L -128.9290008544922 -55.46400070190428 L -128.95579528808594 -55.29600143432616 M -181.0030059814453 -186.75300598144528 L -184.7530059814453 -186.75300598144528 L -184.7530059814453 -176.74800109863278 L -181.9980010986328 -176.74800109863278 L -181.0030059814453 -176.74800109863278 L -177.9980010986328 -176.74800109863278 L -177.2480010986328 -176.74800109863278 L -177.2480010986328 -186.75300598144528 L -177.9980010986328 -186.75300598144528 L -181.0030059814453 -186.75300598144528 M -170.5030059814453 -192.50300598144526 L -170.5030059814453 -180.99800109863278 L -167.4980010986328 -180.99800109863278 L -167.4980010986328 -192.50300598144526 L -170.5030059814453 -192.50300598144526 M -220.5030059814453 -186.75300598144528 L -221.0030059814453 -186.75300598144528 L -221.0030059814453 -176.74800109863278 L -220.5030059814453 -176.74800109863278 L -217.4980010986328 -176.74800109863278 L -216.0030059814453 -176.74800109863278 L -213.4980010986328 -176.74800109863278 L -213.4980010986328 -186.75300598144528 L -217.4980010986328 -186.75300598144528 L -220.5030059814453 -186.75300598144528 M -230.5030059814453 -192.50300598144526 L -230.5030059814453 -180.99800109863278 L -227.4980010986328 -180.99800109863278 L -227.4980010986328 -192.50300598144526 L -230.5030059814453 -192.50300598144526 M -120.74800109863281 -92.9980010986328 L -120.74800109863281 -107.00299835205075 L -124 -107.00299835205075 L -124.00299835205078 -107.00299835205075 L -124.00299835205078 -98.49800109863278 L -124.00299835205078 -92.9980010986328 L -124 -92.9980010986328 L -120.74800109863281 -92.9980010986328 M -120.74800109863281 -112.99800109863278 L -120.74800109863281 -127.00299835205075 L -124 -127.00299835205075 L -124.00299835205078 -127.00299835205075 L -124.00299835205078 -118.49800109863278 L -124.00299835205078 -112.99800109863278 L -124 -112.99800109863278 L -120.74800109863281 -112.99800109863278 M -120.74800109863281 -132.99800109863278 L -120.74800109863281 -147.00300598144528 L -124 -147.00300598144528 L -124.00299835205078 -147.00300598144528 L -124.00299835205078 -138.49800109863278 L -124.00299835205078 -132.99800109863278 L -124 -132.99800109863278 L -120.74800109863281 -132.99800109863278 M -129.02999877929688 -185.8500061035156 L -129.02999877929688 -184.3480072021484 L -129.0030059814453 -184.3480072021484 L -127.52799987792969 -184.3480072021484 L -126.0250015258789 -184.3480072021484 L -126.0250015258789 -185.8500061035156 L -126.0250015258789 -187.35299682617185 L -127.52799987792969 -187.35299682617185 L -129.02999877929688 -187.35299682617185 L -129.02999877929688 -186.36799621582028 M -125.99800109863281 -159.7440032958984 L -125.99800109863281 -159.99999999999997 L -125.99800109863281 -161.50300598144528 L -127.5 -161.50300598144528 L -129.0030059814453 -161.50300598144528 L -129.0030059814453 -159.99999999999997 L -129.0030059814453 -158.49800109863278 L -127.5 -158.49800109863278 L -125.99800109863281 -158.49800109863278 L -125.99800109863281 -159.7440032958984 M -125.99800109863281 -139.26400756835935 L -125.99800109863281 -139.99999999999997 L -125.99800109863281 -141.50300598144528 L -127.5 -141.50300598144528 L -129.0030059814453 -141.50300598144528 L -129.0030059814453 -139.99999999999997 L -129.0030059814453 -138.49800109863278 L -127.5 -138.49800109863278 L -125.99800109863281 -138.49800109863278 L -125.99800109863281 -139.26400756835935 M -125.99800109863281 -118.78399658203122 L -125.99800109863281 -119.99999999999997 L -125.99800109863281 -121.50299835205075 L -127.5 -121.50299835205075 L -129.0030059814453 -121.50299835205075 L -129.0030059814453 -119.99999999999997 L -129.0030059814453 -118.49800109863278 L -127.5 -118.49800109863278 L -125.99800109863281 -118.49800109863278 L -125.99800109863281 -118.78399658203122 z" fill="none" stroke="rgb(255,0,0)" stroke-width="0.001mm" />
</svg>